<?xml version="1.0" encoding="utf-8"?>
<!-- Generator: Adobe Illustrator 27.9.0, SVG Export Plug-In . SVG Version: 6.00 Build 0)  -->
<svg version="1.1" id="レイヤー_1" xmlns="http://www.w3.org/2000/svg" xmlns:xlink="http://www.w3.org/1999/xlink" x="0px"
	 y="0px" viewBox="0 0 3300 2200" style="enable-background:new 0 0 3300 2200;" xml:space="preserve">
<style type="text/css">
	.st0{fill:#FFFFFF;}
	.st1{fill:none;stroke:#000000;stroke-width:0.5;}
	.st2{font-family:'Helvetica-Bold';}
	.st3{font-size:13px;}
	.st4{font-family:'Helvetica';}
	.st5{fill:none;stroke:#00AEEF;stroke-width:0.5;}
	.st6{fill:#27AAE1;}
	.st7{fill:none;stroke:#27AAE1;stroke-width:0.5;}
</style>
<g id="Notes">
	<rect id="artboard" class="st0" width="3300" height="2200"/>
	<line class="st1" x1="263" y1="292" x2="3036" y2="292"/>
	<text transform="matrix(1 0 0 1 263 322)" class="st2 st3">Weight/Scale Variations</text>
	<text transform="matrix(1 0 0 1 534.0632 322)" class="st4 st3">Ultralight</text>
	<text transform="matrix(1 0 0 1 843.7775 322)" class="st4 st3">Thin</text>
	<text transform="matrix(1 0 0 1 1139.035 322)" class="st4 st3">Light</text>
	<text transform="matrix(1 0 0 1 1427.0773 322)" class="st4 st3">Regular</text>
	<text transform="matrix(1 0 0 1 1723.4419 322)" class="st4 st3">Medium</text>
	<text transform="matrix(1 0 0 1 2016.1719 322)" class="st4 st3">Semibold</text>
	<text transform="matrix(1 0 0 1 2326.9705 322)" class="st4 st3">Bold</text>
	<text transform="matrix(1 0 0 1 2618.2659 322)" class="st4 st3">Heavy</text>
	<text transform="matrix(1 0 0 1 2917.5054 322)" class="st4 st3">Black</text>
	<line class="st1" x1="263" y1="1903" x2="3036" y2="1903"/>
	<g transform="matrix(1 0 0 1 263 1933)">
		<path d="M9.2,0.8c4.3,0,7.9-3.6,7.9-7.9S13.5-15,9.2-15s-7.9,3.6-7.9,7.9C1.4-2.7,5,0.8,9.2,0.8z M9.2-0.7c-3.5,0-6.4-2.8-6.4-6.4
			s2.8-6.4,6.4-6.4s6.4,2.8,6.4,6.4S12.8-0.7,9.2-0.7z M5.7-7.1c0,0.4,0.3,0.7,0.8,0.7h2.1v2.1c0,0.4,0.3,0.7,0.7,0.7S10-3.9,10-4.3
			v-2.1h2.1c0.4,0,0.7-0.3,0.7-0.7c0-0.4-0.3-0.7-0.7-0.7H10v-2.1c0-0.4-0.3-0.8-0.7-0.8s-0.7,0.3-0.7,0.8v2.1H6.4
			C6-7.8,5.7-7.5,5.7-7.1z"/>
	</g>
	<g transform="matrix(1 0 0 1 281.867 1933)">
		<path d="M11.7,2.9c5.4,0,10-4.5,10-10c0-5.4-4.5-10-10-10c-5.4,0-10,4.5-10,10C1.7-1.6,6.3,2.9,11.7,2.9z M11.7,1.2
			c-4.6,0-8.3-3.7-8.3-8.3s3.7-8.3,8.3-8.3S20-11.7,20-7.1C20-2.4,16.3,1.2,11.7,1.2z M7.2-7.1c0,0.5,0.3,0.8,0.8,0.8h2.9v2.9
			c0,0.5,0.3,0.8,0.8,0.8s0.8-0.3,0.8-0.8v-2.9h2.9c0.5,0,0.8-0.3,0.8-0.8s-0.3-0.8-0.8-0.8h-2.9v-2.9c0-0.5-0.3-0.8-0.8-0.8
			s-0.8,0.3-0.8,0.8v2.9H8C7.5-7.9,7.2-7.5,7.2-7.1z"/>
	</g>
	<g transform="matrix(1 0 0 1 305.646 1933)">
		<path d="M15,5.7c7,0,12.7-5.8,12.7-12.7c0-7-5.8-12.7-12.7-12.7C8-19.8,2.3-14,2.3-7.1C2.3-0.1,8,5.7,15,5.7z M15,3.8
			C8.9,3.8,4.1-1,4.1-7.1C4.1-13.1,8.9-18,15-18c6,0,10.9,4.9,10.9,10.9C25.9-1,21,3.8,15,3.8z M9.2-7.1c0,0.5,0.4,0.9,0.9,0.9H14v4
			c0,0.5,0.4,0.9,0.9,0.9s0.9-0.4,0.9-0.9v-4h4c0.5,0,0.9-0.4,0.9-0.9S20.3-8,19.8-8h-4v-3.9c0-0.5-0.4-0.9-0.9-0.9S14-12.4,14-11.9
			V-8h-3.9C9.6-8,9.2-7.6,9.2-7.1z"/>
	</g>
	<text transform="matrix(1 0 0 1 263 1953)" class="st2 st3">Design Variations</text>
	<text transform="matrix(1 0 0 1 263 1971)" class="st4 st3">Symbols are supported in up to nine weights and three scales.</text>
	<text transform="matrix(1 0 0 1 263 1989)" class="st4 st3">For optimal layout with text and other symbols, vertically align</text>
	<text transform="matrix(1 0 0 1 263 2007)" class="st4 st3">symbols with the adjacent text.</text>
	<line class="st5" x1="776" y1="1919" x2="776" y2="1933"/>
	<g transform="matrix(1 0 0 1 776 1933)">
		<path d="M3.3,0.2c0.5,0,0.8-0.2,1-0.7L5.5-4h5.8l1.3,3.4C12.7,0,13,0.2,13.5,0.2s0.8-0.3,0.8-0.8c0-0.2,0-0.3-0.1-0.5L9.7-13.4
			C9.4-14,9-14.3,8.4-14.3s-1,0.3-1.2,0.9L2.6-1.2C2.5-1,2.5-0.8,2.5-0.6C2.5-0.1,2.8,0.2,3.3,0.2z M6-5.5l2.4-6.6l0,0l2.4,6.6
			C10.8-5.5,6-5.5,6-5.5z"/>
	</g>
	<line class="st5" x1="793.2" y1="1919" x2="793.2" y2="1933"/>
	<text transform="matrix(1 0 0 1 776 1953)" class="st2 st3">Margins</text>
	<text transform="matrix(1 0 0 1 776 1971)" class="st4 st3">Leading and trailing margins on the left and right side of each symbol</text>
	<text transform="matrix(1 0 0 1 776 1989)" class="st4 st3">can be adjusted by modifying the x-location of the margin guidelines.</text>
	<text transform="matrix(1 0 0 1 776 2007)" class="st4 st3">Modifications are automatically applied proportionally to all</text>
	<text transform="matrix(1 0 0 1 776 2025)" class="st4 st3">scales and weights.</text>
	<g transform="matrix(1 0 0 1 1289 1933)">
		<path d="M2.8,1.9l1.7,1.7c0.9,0.9,1.8,0.8,2.8-0.2L18-8.4l-1-1L6.4,2.3C6,2.7,5.7,2.8,5.2,2.3L4.1,1.1C3.6,0.7,3.7,0.3,4.1,0
			l11.5-10.8l-1-1L3-0.9C2.1,0,2,1,2.8,1.9z M9.3-16.3c-0.4,0.4-0.4,1-0.2,1.4s0.7,0.6,1.3,0.4c1.5-0.3,3-0.4,4.4,0.5l-0.6,1.5
			c-0.3,0.8-0.2,1.4,0.4,2l2.3,2.3c0.5,0.5,0.9,0.5,1.5,0.4l1-0.2l0.7,0.7v0.6c0,0.5,0.1,0.9,0.6,1.4l0.8,0.7c0.5,0.5,1.1,0.5,1.6,0
			L26-7.5C26.5-8,26.4-8.6,26-9l-1-0.9c-0.5-0.5-0.8-0.6-1.3-0.6h-0.6l-0.6-0.6l0.2-1.1c0.1-0.6,0-1-0.6-1.6L19.9-16
			C16.6-19.3,12.1-19.2,9.3-16.3z M10.8-16c2.4-1.8,5.7-1.5,7.9,0.8l2.4,2.4c0.2,0.2,0.3,0.4,0.2,0.8L21-10.5L22.5-9l1-0.1
			c0.3,0,0.3,0,0.5,0.2l0.6,0.6l-2.4,2.4l-0.6-0.6c-0.2-0.2-0.2-0.3-0.2-0.5l0.1-1L20-9.5l-1.5,0.3c-0.3,0.1-0.5,0-0.7-0.2l-2-2
			c-0.3-0.2-0.3-0.4-0.1-0.8l0.9-2.1C15-15.8,13-16.4,11-15.8C10.7-15.7,10.6-15.8,10.8-16z"/>
	</g>
	<text transform="matrix(1 0 0 1 1289 1953)" class="st2 st3">Exporting</text>
	<text transform="matrix(1 0 0 1 1289 1971)" class="st4 st3">Symbols should be outlined when exporting to ensure the</text>
	<text transform="matrix(1 0 0 1 1289 1989)" class="st4 st3">design is preserved when submitting to Xcode.</text>
	<text id="template-version" transform="matrix(1 0 0 1 2952.4141 1933)" class="st4 st3">Template v.4.0</text>
	<text transform="matrix(1 0 0 1 2865.4575 1951)" class="st4 st3">Requires Xcode 14 or greater</text>
	<text id="descriptive-name" transform="matrix(1 0 0 1 2864.7466 1969)" class="st4 st3">Generated from paintbrush.fill</text>
	<text transform="matrix(1 0 0 1 2912.4111 1987)" class="st4 st3">Typeset at 100 points</text>
	<text transform="matrix(1 0 0 1 263 726)" class="st4 st3">Small</text>
	<text transform="matrix(1 0 0 1 263 1156)" class="st4 st3">Medium</text>
	<text transform="matrix(1 0 0 1 263 1586)" class="st4 st3">Large</text>
</g>
<g id="Guides">
	<g id="H-reference" transform="matrix(1 0 0 1 339 696)">
		<path class="st6" d="M1,0h2.6l25.7-67.1H30v-3.3h-1.9L1,0z M11.7-24.5H47l-0.8-2.2H12.4L11.7-24.5z M55.1,0h2.6L30.6-70.5h-1.2
			v3.3L55.1,0z"/>
	</g>
	<line id="Baseline-S" class="st7" x1="263" y1="696" x2="3036" y2="696"/>
	<line id="Capline-S" class="st7" x1="263" y1="625.5" x2="3036" y2="625.5"/>
	<g id="H-reference_00000027570984676651619990000011711249466173738881_" transform="matrix(1 0 0 1 339 1126)">
		<path class="st6" d="M1,0h2.6l25.7-67.1H30v-3.3h-1.9L1,0z M11.7-24.5H47l-0.8-2.2H12.4L11.7-24.5z M55.1,0h2.6L30.6-70.5h-1.2
			v3.3L55.1,0z"/>
	</g>
	<line id="Baseline-M" class="st7" x1="263" y1="1126" x2="3036" y2="1126"/>
	<line id="Capline-M" class="st7" x1="263" y1="1055.5" x2="3036" y2="1055.5"/>
	<g id="H-reference_00000137821639397537537100000005248301061977174192_" transform="matrix(1 0 0 1 339 1556)">
		<path class="st6" d="M1,0h2.6l25.7-67.1H30v-3.3h-1.9L1,0z M11.7-24.5H47l-0.8-2.2H12.4L11.7-24.5z M55.1,0h2.6L30.6-70.5h-1.2
			v3.3L55.1,0z"/>
	</g>
	<line id="Baseline-L" class="st7" x1="263" y1="1556" x2="3036" y2="1556"/>
	<line id="Capline-L" class="st7" x1="263" y1="1485.5" x2="3036" y2="1485.5"/>
	<line id="left-margin-Ultralight-S" class="st5" x1="513" y1="600.8" x2="513" y2="720.1"/>
	<line id="right-margin-Ultralight-S" class="st5" x1="606.4" y1="600.8" x2="606.4" y2="720.1"/>
	<line id="left-margin-Regular-S" class="st5" x1="1400.1" y1="600.8" x2="1400.1" y2="720.1"/>
	<line id="right-margin-Regular-S" class="st5" x1="1499.6" y1="600.8" x2="1499.6" y2="720.1"/>
	<line id="left-margin-Black-S" class="st5" x1="2881.5" y1="600.8" x2="2881.5" y2="720.1"/>
	<line id="right-margin-Black-S" class="st5" x1="2985.3" y1="600.8" x2="2985.3" y2="720.1"/>
</g>
<g id="Symbols">
	<g id="Black-S" transform="matrix(1 0 0 1 2881.5 696)">
		<path d="M28.5,1.5c-0.6,0-1.1-0.5-1.1-1.1V-12c0-3.9-12-3.5-12,0l0,12.6c0,7.2,5.8,13,13,13h47.3c7.2,0,13-5.8,13-13V-12
			c0-4-12-3.5-12,0V0.3c0,0.6-0.5,1.1-1.2,1.1H28.5z"/>
		<path d="M83.2-37.9H69.1c0.3-1.1,0.7-2.5,1.3-4.3c2.4-7.5,4.2-13.8,4.2-20.3c0-13.3-9.1-22.2-22.7-22.2
			c-13.6,0-22.7,8.9-22.7,22.3c0.1,6.5,1.9,12.7,4.2,20.2c0.6,1.9,1,3.2,1.3,4.3H20.6c-6.2,0-11.3,4.7-11.3,11.5v8.6
			c0,6.2,4.6,11.3,11.2,11.3h62.6c6.4,0,11.2-5.1,11.2-11.3v-8.7C94.3-33,89.4-37.9,83.2-37.9z M82.7-20.4c0,0.9-0.3,1.9-1.9,1.9
			c-11.1,0-43.9,0-57.2,0c-1.7,0-2-1-2-1.9c0-0.8,0-2.5,0-3.4c0-0.8,0.6-1.9,2-1.9c4.3,0,12.8,0,17.1,0c4.8,0,6.2-2.8,6.6-3.6
			c0.4-0.8,0.8-3.4,0.3-6.5c-0.5-3-2-9.1-2.4-10.5c-1.7-5.8-3.4-10.1-3.5-14.9c-0.1-7.2,2.5-11.3,10.5-11.3S63-68.4,62.9-61.2
			c0,4.8-1.5,9.2-3.4,14.9c-0.5,1.4-2.1,7.5-2.7,10.5c-0.6,3-0.3,5.7,0.2,6.5c0.4,0.8,2,3.6,6.7,3.6c2.4,0,12.8,0,17.1,0
			c1.4,0,1.9,1.1,1.9,1.9C82.7-22.9,82.7-21.2,82.7-20.4z"/>
		<path d="M55.7-58.6c-2.1,2.1-5.5,2-7.5,0s-2.1-5.4,0-7.5c2-2,5.5-2,7.5,0S57.7-60.7,55.7-58.6z"/>
	</g>
	<g id="Regular-S" transform="matrix(1 0 0 1 1400.11 696)">
		<path d="M24.2,5c-1.7,0-3-1.3-3-3v-12.6c0-1.5-5.2-1.4-5.2,0V2.1c0,4.6,3.7,8.2,8.2,8.2H75c4.6,0,8.2-3.7,8.2-8.2v-12.7
			c0-1.5-5.2-1.4-5.2,0V2c0,1.7-1.3,3-3,3H24.2z"/>
		<path d="M80.2-31.8l-18.5,0.1c0.4-2.2,3.1-10.7,3.6-12.3c2-6.9,3.6-12.6,3.7-18.9c0-11.2-7.5-18.5-19.2-18.5
			c-11.7,0-19.2,7.3-19.2,18.5c0.1,6.2,1.6,12,3.7,18.9c0.5,1.7,3.2,10.2,3.6,12.3l-18.5-0.1c-4.7,0-7.9,4.3-7.9,8.3v7.4
			c0,4,2.9,8.2,7.8,8.2h61.2c4.9,0,7.8-4.1,7.8-8.2v-7.4C88.3-27.5,84.9-31.8,80.2-31.8z M83.1-16.1c0,1.3-1.2,2.9-2.8,2.9
			c-14.3,0-46.7,0-61,0c-1.7,0-2.6-1.6-2.6-2.9c0-0.8,0-6.6,0-7.4c0-1.5,1.2-3,2.6-3c4.8,0,17.1,0,21.4,0c1.1,0,2-0.6,2.4-1.4
			c0.4-0.8,0.5-2.4-0.1-5.5c-0.6-3.1-3.6-12.3-4-13.7c-1.7-5.8-2.9-11.1-3-15.9c-0.1-7.2,2.9-13.2,13.9-13.2c10,0,14,6,13.9,13.2
			c0,4.8-1.1,10.2-3,15.9c-0.5,1.4-3.3,10.7-4,13.7c-0.7,3-0.6,4.7-0.1,5.5c0.4,0.8,1.5,1.4,2.4,1.4c2.4,0,16.3,0,21.2,0
			c1.4,0,2.8,1.2,2.8,3C83.1-22.7,83.1-16.9,83.1-16.1z"/>
		<path d="M54.4-57c-2.5,2.5-6.7,2.5-9.2,0s-2.6-6.7,0-9.2c2.5-2.5,6.7-2.5,9.2,0S57-59.5,54.4-57z"/>
	</g>
	<g id="Ultralight-S" transform="matrix(1 0 0 1 512.999 696)">
		<path d="M24.1,4.2c-3.2,0-4.5-1.3-4.5-4.5v-7c0-0.6-2.2-0.6-2.2,0v7c0,4.4,2.3,6.7,6.7,6.7h45.2c4.4,0,6.7-2.3,6.7-6.7v-7
			c0-0.6-2.2-0.6-2.2,0v7c0,3.2-1.3,4.5-4.5,4.5H24.1z"/>
		<path d="M74.1-25.5L55-25.4c0.2-3.9,1.8-9.4,3.6-15.2c2.2-7.3,4.4-14.7,4.4-20.8c0-10.1-6.1-16.1-16.3-16.1s-16.3,6-16.3,16.1
			c0.1,6,2.3,13.5,4.4,20.8c1.7,5.8,3.4,11.3,3.6,15.2l-19.1-0.1c-3.4,0-5.8,2.4-5.8,5.8v7.8c0,3.4,2.2,5.7,5.7,5.7h55
			c3.3,0,5.7-2.2,5.7-5.7v-7.8C79.9-23.1,77.5-25.5,74.1-25.5z M77.8-11.5c0,1.3-1.2,3-2.8,3c-11.1,0-43.3,0-56.6,0
			c-1.7,0-2.8-1.6-2.8-3c0-0.8,0-7.8,0-8.7c0-1.3,1.4-3.2,2.8-3.2c4.3,0,12.6,0,16.8,0c4.3,0,5-0.2,5.3-1c0.4-0.8-0.2-3.8-0.9-6.9
			c-0.7-3-3.1-11.2-3.5-12.6c-1.7-5.8-3.4-13.1-3.4-17.9c-0.1-7.2,3.9-13.5,13.9-13.5c10.1,0,14,6.3,13.9,13.5
			c0,4.8-1.5,12.2-3.4,17.9c-0.5,1.4-2.9,9.5-3.6,12.5c-0.7,3-1.4,6.1-0.9,6.9c0.4,0.8,0.8,1.1,5.5,1.1c2.4,0,12.5,0,16.8,0
			c1.4,0,2.8,2.1,2.8,3.2C77.8-19.3,77.8-12.3,77.8-11.5z"/>
		<path d="M50.7-58.5c-2.2,2.2-5.7,2.1-7.9-0.1c-2.2-2.2-2.3-5.7-0.1-7.9c2.2-2.2,5.8-2.3,8,0C52.9-64.3,52.9-60.8,50.7-58.5z"/>
	</g>
</g>
</svg>
